<svg width="1280" height="720" xmlns="http://www.w3.org/2000/svg" xmlns:xlink="http://www.w3.org/1999/xlink" overflow="hidden"><defs><filter id="fx0" x="-10%" y="-10%" width="120%" height="120%" filterUnits="userSpaceOnUse" primitiveUnits="userSpaceOnUse"><feComponentTransfer color-interpolation-filters="sRGB"><feFuncR type="discrete" tableValues="0.109804 0.109804"/><feFuncG type="discrete" tableValues="0.14902 0.14902"/><feFuncB type="discrete" tableValues="0.176471 0.176471"/><feFuncA type="linear" slope="0.301961" intercept="0"/></feComponentTransfer><feGaussianBlur stdDeviation="3.55556 3.55556"/></filter><clipPath id="clip1"><rect x="0" y="0" width="1280" height="720"/></clipPath><clipPath id="clip2"><rect x="-5" y="-5" width="1291" height="734"/></clipPath><clipPath id="clip3"><rect x="0" y="0" width="1284" height="726"/></clipPath></defs><g clip-path="url(#clip1)"><rect x="0" y="0" width="1280" height="720" fill="#FFFFFF"/><rect x="-3.44852e-14" y="0" width="1280" height="720" fill="#1C262D"/><g clip-path="url(#clip2)" filter="url(#fx0)" transform="translate(3 2)"><g clip-path="url(#clip3)"><path d="M11.714 63.459C11.714 34.881 34.881 11.714 63.4589 11.714L1219.97 11.714C1248.55 11.714 1271.71 34.881 1271.71 63.459L1271.71 661.969C1271.71 690.547 1248.55 713.714 1219.97 713.714L63.4589 713.714C34.881 713.714 11.714 690.547 11.714 661.969Z" fill="#29333A" fill-rule="evenodd"/></g></g><path d="M10 60.7449C10 32.167 33.167 9 61.7449 9L1218.26 9C1246.83 9 1270 32.167 1270 60.7449L1270 659.255C1270 687.833 1246.83 711 1218.26 711L61.7449 711C33.167 711 10 687.833 10 659.255Z" fill="#29333A" fill-rule="evenodd"/><text fill="#FFFFFF" font-family="Segoe UI,Segoe UI_MSFontService,sans-serif" font-weight="400" font-size="53" transform="translate(43.0403 72)">Requests<tspan font-size="53" x="225.513" y="0">per </tspan>Subsidiary</text></g></svg>